# xmcd
#
# Track frame offsets:
#   150
#   19527
#   34425
#   52157
#   70332
#   88217
#   105510
#   124582
#   144410
#
# Disc length: 2229 seconds
#
# Revision: 1
# Processed by: cddbd v1.5.1PL0 Copyright (c) Steve Scherf et al.
# Submitted via: Media_Universe 3.0
#
DISCID=7c08b309
DTITLE=La Dimension Latina - Los Generales De La Salsa
DYEAR=1999
DGENRE=Salsa
TTITLE0=A Brazo Partido
TTITLE1=Tu Alli No Estas
TTITLE2=Mi Prometida
TTITLE3=Esperame
TTITLE4=Tonto
TTITLE5=Amor En Construccion
TTITLE6=Uno Na Sabe
TTITLE7=Señora Tristeza
TTITLE8=Que Ternura
EXTD=YEAR: 1999
EXTT0=
EXTT1=
EXTT2=
EXTT3=
EXTT4=
EXTT5=
EXTT6=
EXTT7=
EXTT8=
PLAYORDER=
